<?xml version="1.0" encoding="UTF-8" ?>
<!DOCTYPE svg PUBLIC "-//W3C//DTD SVG 1.1//EN" "http://www.w3.org/Graphics/SVG/1.1/DTD/svg11.dtd">
<svg width="1200pt" height="784pt" viewBox="0 0 1200 784" version="1.1" xmlns="http://www.w3.org/2000/svg">
<g id="#012e40ff">
<path fill="#012e40" opacity="1.00" d=" M 673.60 0.00 L 684.41 0.00 C 701.48 0.89 718.60 3.86 734.42 10.51 C 770.03 24.34 799.94 52.32 815.85 87.07 C 824.20 105.05 829.22 124.71 829.75 144.55 C 820.53 144.83 811.28 145.88 802.07 145.02 C 800.91 139.76 800.54 134.39 799.71 129.08 C 796.88 112.82 790.55 97.25 781.57 83.43 C 769.59 65.29 752.76 50.37 733.23 40.79 C 719.62 34.23 704.88 30.05 689.84 28.55 C 684.87 28.10 679.87 28.43 674.89 28.24 C 650.75 20.72 625.05 18.97 599.99 21.90 C 607.00 18.27 613.81 14.19 621.20 11.35 C 633.26 6.67 645.73 2.62 658.67 1.42 C 663.65 0.95 668.61 0.34 673.60 0.00 Z" />
<path fill="#012e40" opacity="1.00" d=" M 554.77 64.81 C 572.19 55.75 591.55 50.66 611.08 49.05 C 609.16 50.08 607.34 51.27 605.58 52.54 C 581.25 70.53 563.88 97.86 558.56 127.71 C 554.95 145.44 555.54 164.07 560.38 181.51 C 569.32 215.87 594.21 245.85 626.55 260.60 C 642.62 268.81 660.79 272.23 678.73 272.47 C 679.23 281.86 679.20 291.30 678.71 300.69 C 657.64 301.08 636.63 296.20 617.43 287.63 C 590.39 275.80 567.16 255.57 551.37 230.67 C 539.21 211.60 531.58 189.73 528.85 167.30 C 528.10 159.88 528.02 152.40 528.16 144.95 C 528.43 127.20 532.69 109.67 539.28 93.25 C 543.79 83.45 548.50 73.64 554.77 64.81 Z" />
<path fill="#012e40" opacity="1.00" d=" M 842.58 249.43 C 851.88 245.80 862.08 245.63 871.90 246.45 C 879.48 247.48 887.00 250.20 893.10 254.88 C 898.09 259.10 902.39 264.48 904.31 270.80 C 900.65 274.79 896.68 278.48 892.42 281.80 C 891.47 279.38 890.59 276.92 889.45 274.59 C 886.03 267.61 878.94 262.82 871.35 261.53 C 861.59 259.86 850.41 259.85 842.22 266.20 C 837.85 269.64 835.74 276.01 837.83 281.25 C 840.17 285.85 844.96 288.49 849.55 290.41 C 860.35 294.64 872.13 295.66 882.86 300.12 C 890.46 303.13 898.05 307.31 902.73 314.25 C 909.05 323.41 909.24 335.60 905.68 345.85 C 900.53 358.74 887.45 366.83 874.15 369.03 C 861.26 370.96 847.49 370.32 835.70 364.29 C 825.85 359.30 818.02 350.07 815.69 339.17 C 819.78 335.21 824.13 331.49 828.80 328.23 C 830.51 333.26 831.81 338.60 835.13 342.88 C 840.46 349.85 848.88 353.94 857.42 355.33 C 863.79 356.13 870.54 356.06 876.51 353.42 C 881.97 351.03 886.84 346.84 889.23 341.30 C 890.82 337.17 890.89 332.51 889.84 328.24 C 888.47 323.41 884.19 320.17 879.91 317.99 C 869.34 312.56 857.31 311.44 846.13 307.78 C 838.58 305.20 831.50 300.75 826.48 294.48 C 820.39 287.00 818.94 276.23 822.29 267.26 C 825.72 258.46 833.84 252.37 842.58 249.43 Z" />
<path fill="#012e40" opacity="1.00" d=" M 740.29 249.24 C 745.09 248.76 749.93 248.81 754.75 249.20 C 771.63 288.14 788.82 326.97 805.69 365.92 C 800.24 366.07 794.77 366.26 789.34 365.70 C 785.14 356.44 781.45 346.94 776.84 337.87 C 768.57 337.25 760.27 337.80 752.00 337.62 C 740.70 337.79 729.40 337.31 718.12 337.83 C 713.31 346.82 709.99 356.50 705.57 365.67 C 700.11 366.28 694.61 366.10 689.14 365.90 C 691.69 358.78 695.36 352.14 698.11 345.10 C 707.64 323.60 716.98 302.01 726.46 280.49 C 731.26 270.15 735.36 259.51 740.29 249.24 M 747.26 270.79 C 744.15 276.45 742.08 282.60 739.38 288.46 C 734.11 299.85 729.29 311.45 724.15 322.89 C 739.50 323.05 754.86 323.14 770.21 322.85 C 768.67 317.91 766.37 313.28 764.35 308.53 C 760.67 300.27 757.13 291.94 753.40 283.70 C 751.36 279.39 750.26 274.58 747.26 270.79 Z" />
<path fill="#012e40" opacity="1.00" d=" M 979.29 249.24 C 984.09 248.77 988.93 248.81 993.75 249.20 C 1010.63 288.15 1027.83 326.97 1044.69 365.93 C 1039.24 366.08 1033.77 366.26 1028.34 365.70 C 1024.13 356.44 1020.45 346.94 1015.84 337.87 C 1007.57 337.25 999.28 337.80 991.00 337.62 C 979.71 337.79 968.40 337.30 957.12 337.83 C 952.31 346.82 948.98 356.50 944.58 365.68 C 939.11 366.27 933.61 366.10 928.14 365.90 C 930.68 358.78 934.36 352.14 937.11 345.10 C 946.64 323.60 955.98 302.01 965.46 280.49 C 970.26 270.16 974.36 259.51 979.29 249.24 M 986.24 270.82 C 983.37 276.03 981.42 281.67 978.99 287.09 C 973.53 298.94 968.48 310.98 963.15 322.89 C 978.50 323.05 993.86 323.13 1009.21 322.86 C 1006.53 314.88 1002.68 307.37 999.42 299.63 C 996.50 292.58 993.12 285.73 990.30 278.64 C 989.14 275.94 988.27 273.02 986.24 270.82 Z" />
<path fill="#012e40" opacity="1.00" d=" M 0.00 299.46 C 1.35 297.41 3.33 295.73 5.95 295.98 C 23.96 295.96 41.98 296.05 60.00 295.99 C 69.38 296.01 78.75 296.01 88.12 295.99 C 121.76 296.00 155.40 296.02 189.04 295.97 C 190.92 296.01 192.79 296.12 194.67 296.22 C 194.76 305.46 194.77 314.70 194.66 323.94 C 189.13 324.53 183.56 324.39 178.00 324.32 C 148.04 324.29 118.08 324.34 88.12 324.29 C 78.74 324.32 69.37 324.32 60.00 324.28 C 49.46 324.42 38.91 324.13 28.37 324.37 C 28.18 329.24 28.26 334.12 28.32 339.00 C 28.31 434.67 28.32 530.34 28.31 626.00 C 28.36 631.88 28.59 637.77 27.87 643.63 C 18.58 643.81 9.29 643.44 0.00 643.72 L 0.00 299.46 Z" />
<path fill="#012e40" opacity="1.00" d=" M 844.40 523.69 C 857.69 521.89 871.94 523.38 883.55 530.50 C 894.96 537.22 903.05 548.70 906.87 561.25 C 910.23 571.16 910.26 581.77 909.75 592.10 C 909.49 597.94 907.96 603.61 906.20 609.15 C 901.60 625.03 888.48 638.01 872.70 642.82 C 859.87 647.37 845.42 647.11 832.72 642.25 C 822.71 638.63 814.19 631.38 808.65 622.34 C 801.89 611.18 798.80 598.00 799.02 585.00 C 798.60 568.48 803.29 551.09 814.90 538.90 C 822.64 530.63 833.39 525.76 844.40 523.69 M 848.41 537.67 C 842.18 538.67 836.06 541.07 831.29 545.27 C 824.55 550.74 820.49 558.79 818.10 566.99 C 815.88 574.47 815.95 582.37 816.17 590.10 C 816.31 597.50 818.70 604.65 821.80 611.30 C 826.94 621.92 837.28 630.06 849.07 631.68 C 856.77 632.53 864.94 631.77 871.75 627.83 C 879.23 623.81 884.90 616.92 888.16 609.15 C 891.66 600.56 893.26 591.24 892.94 581.97 C 893.03 573.07 890.94 564.16 886.82 556.26 C 883.09 549.20 877.05 543.30 869.63 540.22 C 863.06 537.05 855.53 536.70 848.41 537.67 Z" />
<path fill="#012e40" opacity="1.00" d=" M 153.09 526.10 C 158.36 525.86 163.64 525.86 168.91 526.10 C 169.18 553.09 168.85 580.09 169.06 607.08 C 169.04 613.55 171.56 620.14 176.48 624.45 C 181.13 628.23 186.98 630.46 192.94 630.94 C 199.28 631.45 205.90 631.41 211.88 628.96 C 216.39 627.23 220.78 624.56 223.34 620.33 C 226.63 615.21 226.86 608.91 226.97 603.01 C 227.10 577.38 226.85 551.74 227.09 526.11 C 232.36 525.86 237.64 525.86 242.91 526.10 C 243.14 550.39 242.92 574.70 243.01 599.00 C 242.90 606.64 243.42 614.55 240.71 621.85 C 238.00 629.58 232.39 636.24 225.16 640.10 C 216.54 644.64 206.65 646.24 196.99 645.95 C 186.15 646.15 174.95 643.40 166.23 636.77 C 157.46 630.06 152.89 618.92 153.01 608.03 C 153.06 580.72 152.87 553.40 153.09 526.10 Z" />
<path fill="#012e40" opacity="1.00" d=" M 272.09 526.09 C 296.33 525.91 320.59 526.00 344.84 526.05 C 343.59 530.63 342.23 535.18 340.64 539.66 C 323.13 540.08 305.60 539.38 288.10 539.96 C 287.92 551.94 287.92 563.93 288.09 575.91 C 304.08 576.24 320.08 575.76 336.07 576.10 C 336.51 580.69 336.52 585.31 336.07 589.90 C 320.08 590.25 304.08 589.75 288.10 590.10 C 287.91 603.03 287.92 615.98 288.09 628.91 C 305.62 629.33 323.18 628.55 340.70 629.26 C 342.52 633.68 344.21 638.17 345.23 642.85 C 337.49 643.24 329.74 642.89 322.00 643.00 C 305.36 642.92 288.72 643.15 272.09 642.91 C 271.85 607.28 272.10 571.63 271.98 536.00 C 271.92 532.69 271.96 529.39 272.09 526.09 Z" />
<path fill="#012e40" opacity="1.00" d=" M 368.11 526.12 C 375.31 525.99 382.52 525.83 389.72 526.23 C 392.69 530.72 395.10 535.55 397.84 540.18 C 410.55 562.15 423.10 584.21 435.76 606.20 C 437.65 609.60 439.57 612.99 441.82 616.18 C 442.32 586.17 441.72 556.14 442.11 526.13 C 447.36 525.91 452.63 525.91 457.89 526.13 C 458.20 533.41 457.91 540.71 458.00 548.00 C 457.93 579.63 458.13 611.28 457.91 642.91 C 451.65 643.10 445.38 643.14 439.13 642.90 C 436.77 639.79 434.95 636.34 433.08 632.93 C 418.68 607.99 404.33 583.01 389.97 558.05 C 388.20 554.82 386.40 551.62 384.16 548.70 C 383.70 580.09 384.25 611.51 383.90 642.90 C 378.63 643.13 373.36 643.13 368.09 642.90 C 367.85 605.93 368.12 568.95 367.96 531.99 C 367.96 530.02 368.03 528.07 368.11 526.12 Z" />
<path fill="#012e40" opacity="1.00" d=" M 481.34 526.22 C 486.88 525.79 492.44 526.02 498.00 526.00 C 518.67 525.99 539.33 526.00 560.00 526.00 C 565.55 526.02 571.12 525.79 576.66 526.22 C 576.77 530.74 576.77 535.26 576.66 539.78 C 563.49 540.41 550.28 539.67 537.09 540.09 C 536.80 574.36 537.20 608.63 536.91 642.90 C 531.64 643.13 526.36 643.13 521.09 642.90 C 520.80 608.63 521.20 574.35 520.91 540.09 C 507.72 539.67 494.51 540.41 481.33 539.78 C 481.22 535.26 481.22 530.74 481.34 526.22 Z" />
<path fill="#012e40" opacity="1.00" d=" M 599.09 526.09 C 623.34 525.90 647.59 526.00 671.84 526.04 C 670.59 530.63 669.23 535.18 667.64 539.66 C 650.13 540.07 632.60 539.38 615.10 539.96 C 614.91 551.94 614.92 563.93 615.09 575.91 C 631.08 576.24 647.08 575.76 663.06 576.10 C 663.52 580.69 663.52 585.31 663.07 589.90 C 647.08 590.25 631.08 589.76 615.09 590.09 C 614.92 603.03 614.92 615.97 615.09 628.91 C 626.39 629.17 637.69 628.90 649.00 629.00 C 655.23 629.10 661.48 628.67 667.70 629.26 C 669.52 633.68 671.20 638.17 672.23 642.86 C 664.49 643.23 656.74 642.89 649.00 643.00 C 632.37 642.92 615.72 643.15 599.09 642.91 C 598.84 605.94 599.12 568.96 598.95 531.99 C 598.95 530.02 599.02 528.05 599.09 526.09 Z" />
<path fill="#012e40" opacity="1.00" d=" M 688.34 526.22 C 693.88 525.79 699.44 526.02 705.00 526.00 C 725.67 526.00 746.33 526.00 767.00 526.00 C 772.55 526.01 778.12 525.78 783.67 526.23 C 783.77 530.74 783.77 535.26 783.66 539.77 C 770.48 540.41 757.28 539.67 744.09 540.09 C 743.80 574.36 744.20 608.63 743.91 642.90 C 738.64 643.13 733.36 643.13 728.09 642.90 C 727.80 608.64 728.20 574.36 727.91 540.09 C 714.72 539.67 701.51 540.42 688.33 539.77 C 688.22 535.25 688.22 530.74 688.34 526.22 Z" />
<path fill="#012e40" opacity="1.00" d=" M 934.09 526.09 C 949.39 525.84 964.69 526.09 980.00 525.99 C 986.17 525.87 992.39 526.60 998.23 528.67 C 1004.95 530.79 1011.22 535.00 1014.85 541.16 C 1018.25 546.62 1018.62 553.46 1017.37 559.64 C 1015.38 567.44 1009.05 573.46 1002.00 576.91 C 999.39 578.22 996.28 578.46 994.00 580.38 C 998.29 581.36 1002.75 582.11 1006.58 584.44 C 1015.18 589.02 1021.56 598.06 1021.75 607.96 C 1022.44 616.55 1019.51 625.34 1013.82 631.80 C 1009.50 636.43 1003.89 639.98 997.73 641.53 C 988.64 643.69 979.24 642.92 970.00 643.04 C 958.03 642.94 946.06 643.24 934.09 642.93 C 933.85 606.96 934.10 570.98 933.97 535.00 C 933.92 532.03 933.98 529.06 934.09 526.09 M 950.11 539.87 C 949.91 550.93 949.91 562.01 950.10 573.08 C 957.05 573.61 964.03 573.19 971.00 573.34 C 978.62 573.29 986.68 573.17 993.58 569.50 C 1001.36 565.10 1003.10 553.89 998.32 546.69 C 995.44 542.81 990.71 540.69 986.01 540.08 C 980.37 539.34 974.66 539.66 969.00 539.63 C 962.70 539.71 956.39 539.33 950.11 539.87 M 950.09 587.09 C 949.92 601.09 949.91 615.10 950.10 629.10 C 958.72 629.65 967.36 629.19 975.99 629.34 C 984.01 629.44 992.66 628.35 999.01 623.00 C 1004.00 618.94 1005.33 612.03 1004.86 605.93 C 1004.50 599.66 1000.92 593.57 995.27 590.68 C 989.47 587.23 982.55 586.90 975.99 586.99 C 967.36 587.10 958.72 586.81 950.09 587.09 Z" />
<path fill="#012e40" opacity="1.00" d=" M 1087.29 526.24 C 1092.09 525.76 1096.93 525.81 1101.75 526.20 C 1118.64 565.15 1135.82 603.97 1152.70 642.92 C 1147.24 643.07 1141.77 643.25 1136.34 642.70 C 1132.14 633.44 1128.45 623.94 1123.84 614.87 C 1115.24 614.25 1106.61 614.81 1098.00 614.63 C 1087.04 614.79 1076.07 614.30 1065.12 614.83 C 1060.31 623.82 1056.98 633.50 1052.57 642.67 C 1047.11 643.28 1041.61 643.10 1036.14 642.90 C 1038.68 635.78 1042.37 629.14 1045.11 622.10 C 1054.54 600.82 1063.80 579.47 1073.15 558.17 C 1078.07 547.61 1082.26 536.74 1087.29 526.24 M 1094.23 547.82 C 1091.16 553.49 1089.06 559.61 1086.37 565.46 C 1081.11 576.85 1076.30 588.45 1071.15 599.89 C 1086.50 600.06 1101.86 600.12 1117.22 599.86 C 1116.61 598.10 1116.02 596.36 1115.33 594.66 C 1109.13 580.23 1102.55 565.97 1096.56 551.46 C 1095.98 550.12 1095.20 548.88 1094.23 547.82 Z" />
</g>
<g id="#d65b10ff">
<path fill="#d65b10" opacity="1.00" d=" M 599.99 21.90 C 625.05 18.97 650.75 20.72 674.89 28.24 C 689.22 32.95 703.26 38.84 716.04 46.92 C 728.33 54.62 739.86 63.61 750.05 73.94 C 770.47 95.01 786.06 120.96 793.89 149.30 C 797.86 163.03 800.65 177.21 800.72 191.55 C 791.48 191.71 782.23 192.82 773.00 192.06 C 771.90 185.50 771.70 178.83 770.49 172.30 C 766.67 152.11 759.13 132.53 747.47 115.56 C 726.45 83.71 692.73 60.48 655.40 52.43 C 640.95 48.81 625.90 48.09 611.08 49.05 C 591.55 50.66 572.19 55.75 554.77 64.81 C 525.75 79.24 501.74 103.46 487.47 132.55 C 479.97 147.36 475.57 163.56 473.28 179.95 C 471.76 193.72 471.94 207.70 473.85 221.42 C 476.53 238.06 482.10 254.21 489.97 269.10 C 505.08 296.84 528.96 319.89 557.57 333.42 C 570.26 339.39 583.71 343.79 597.56 346.10 C 605.65 347.71 613.92 347.68 622.13 348.18 C 622.64 357.49 622.58 366.83 622.16 376.14 C 611.02 376.29 599.92 374.87 588.94 373.11 C 580.60 371.85 572.58 369.19 564.59 366.61 C 544.55 360.16 526.12 349.34 509.67 336.30 C 481.21 313.11 459.87 281.08 450.28 245.58 C 444.10 225.10 443.09 203.44 444.54 182.20 C 445.30 173.36 447.10 164.65 449.00 155.99 C 461.02 105.89 496.28 61.98 542.56 39.37 C 560.44 30.13 580.05 24.42 599.99 21.90 Z" />
<path fill="#d65b10" opacity="1.00" d=" M 60.05 221.34 C 140.71 221.28 221.37 221.28 302.03 221.34 C 302.75 230.55 302.56 239.83 302.14 249.06 C 295.10 249.59 288.05 249.24 281.00 249.29 C 222.00 249.31 163.00 249.29 104.00 249.30 C 98.82 249.25 93.63 249.15 88.45 249.44 C 87.94 264.95 88.66 280.48 88.12 295.99 C 78.75 296.01 69.38 296.01 60.00 295.99 C 60.00 283.99 59.99 272.00 60.01 260.00 C 60.04 247.11 59.09 234.20 60.05 221.34 Z" />
<path fill="#d65b10" opacity="1.00" d=" M 60.00 324.28 C 69.37 324.32 78.74 324.32 88.12 324.29 C 88.39 331.19 88.32 338.09 88.30 345.00 C 88.30 444.33 88.30 543.67 88.30 643.00 C 88.15 651.62 88.66 660.25 88.05 668.87 C 78.75 669.14 69.43 669.13 60.12 668.88 C 59.76 661.59 60.08 654.29 60.00 647.00 C 60.00 539.43 59.99 431.86 60.00 324.28 Z" />
</g>
</svg>
