<svg width="79" height="65" xmlns="http://www.w3.org/2000/svg" xmlns:xlink="http://www.w3.org/1999/xlink" overflow="hidden"><defs><clipPath id="clip0"><rect x="167" y="76" width="79" height="65"/></clipPath></defs><g clip-path="url(#clip0)" transform="translate(-167 -76)"><path d="M206.5 133.121C196.625 133.121 188.725 125.242 188.725 115.394 188.725 105.545 196.625 97.6665 206.5 97.6665 216.375 97.6665 224.275 105.545 224.275 115.394 224.275 125.242 216.375 133.121 206.5 133.121ZM186.75 101.606 174.9 101.606 174.9 93.7272 186.75 93.7272 186.75 101.606ZM242.05 85.8483 222.3 85.8483 216.375 76 196.625 76 190.7 85.8483 170.95 85.8483C168.777 85.8483 167 87.6213 167 89.788L167 137.061C167 139.227 168.777 141 170.95 141L242.05 141C244.223 141 246 139.227 246 137.061L246 89.788C246 87.6213 244.223 85.8483 242.05 85.8483Z" fill="#AED05E" fill-rule="evenodd"/><path d="M207 105C201.4 105 197 109.4 197 115 197 120.6 201.4 125 207 125 212.6 125 217 120.6 217 115 217 109.4 212.6 105 207 105ZM207 129C199.2 129 193 122.8 193 115 193 107.2 199.2 101 207 101 214.8 101 221 107.2 221 115 221 122.8 214.8 129 207 129Z" fill="#AED05E" fill-rule="evenodd"/></g></svg>