<svg width="87" height="74" xmlns="http://www.w3.org/2000/svg" xmlns:xlink="http://www.w3.org/1999/xlink" overflow="hidden"><defs><clipPath id="clip0"><rect x="492" y="67" width="87" height="74"/></clipPath></defs><g clip-path="url(#clip0)" transform="translate(-492 -67)"><path d="M558.004 85.841C554.805 85.841 552.139 83.2793 552.272 80.0772 552.272 77.003 554.938 74.4414 558.137 74.4414 561.336 74.4414 564.002 77.003 564.002 80.0772 564.002 81.6141 563.336 83.0231 562.27 84.0478 561.07 85.2006 559.604 85.841 558.004 85.841ZM552.272 68.037C549.34 69.0616 547.074 71.2391 545.607 73.8009 543.741 77.2593 543.475 81.2299 544.941 84.8164L551.339 98.1374 555.605 106.591C556.005 107.488 556.938 108 558.004 108 559.07 108 560.003 107.488 560.403 106.591L564.669 98.1374 571.067 84.9443C571.734 83.4074 572 81.7422 572 80.0772 572 71.111 562.403 64.3224 552.272 68.037Z" fill="#AED05E" fill-rule="evenodd"/><path d="M533.325 134.125 515.925 126.982 515.925 97.8751 533.325 105.018 533.325 134.125ZM511.575 126.982 498.525 132.339 498.525 103.232 511.575 97.8751 511.575 126.982ZM571.823 96.9823 571.823 96.9823 569.104 101.804 572.475 103.232 572.475 132.339 559.425 126.982 559.425 115.107 555.075 115.107 555.075 126.982 537.675 134.125 537.675 105.018 545.396 101.804 542.677 96.9823 535.5 99.9287 513.75 91.0001 492 99.9287 492 141 513.75 132.071 535.5 141 557.25 132.071 579 141 579 99.9287 571.823 96.9823Z" fill="#AED05E" fill-rule="evenodd"/></g></svg>