<svg width="80" height="64" xmlns="http://www.w3.org/2000/svg" xmlns:xlink="http://www.w3.org/1999/xlink" overflow="hidden"><defs><clipPath id="clip0"><rect x="335" y="72" width="80" height="64"/></clipPath></defs><g clip-path="url(#clip0)" transform="translate(-335 -72)"><path d="M412.273 92C410.727 92 409.545 93.7333 409.545 96.0001L409.545 114.667C409.545 108.8 406.273 104 402.273 104L361 104C361.182 103.2 361.364 102.267 361.364 101.333 361.364 96.9334 358.909 93.3335 355.909 93.3335L345.909 93.3335C342.909 93.3335 340.455 96.9334 340.455 101.333L340.455 75.9999C340.455 73.733 339.273 71.9998 337.728 71.9998 336.182 71.9998 335 73.733 335 75.9999L335 136 340.455 136 340.455 122.667 409.545 122.667 409.545 136 415 136 415 96.0001C415 93.7333 413.818 92 412.273 92ZM345.909 98.6667 355.909 98.6667C356.909 98.6667 357.728 99.8666 357.728 101.333 357.728 102.8 356.909 104 355.909 104L345.909 104C344.909 104 344.091 102.8 344.091 101.333 344.091 99.8666 344.909 98.6667 345.909 98.6667ZM340.455 114.667 340.455 109.333 402.273 109.333C404.273 109.333 405.909 111.734 405.909 114.667L340.455 114.667Z" fill="#AED05E" fill-rule="evenodd"/></g></svg>