<svg width="47" height="46" xmlns="http://www.w3.org/2000/svg" xmlns:xlink="http://www.w3.org/1999/xlink" overflow="hidden"><defs><clipPath id="clip0"><rect x="198" y="265" width="47" height="46"/></clipPath></defs><g clip-path="url(#clip0)" transform="translate(-198 -265)"><path d="M42.6458 18.6875 41.9807 18.6875C41.3055 18.6903 40.7223 19.1605 40.5763 19.8198L39.572 24.4375 6.42802 24.4375 5.42177 19.8198C5.27591 19.1612 4.69376 18.6912 4.01925 18.6875L3.35417 18.6875C2.56026 18.6875 1.91667 19.3311 1.91667 20.125L1.91667 28.2708C1.91825 29.5934 2.98998 30.6651 4.3125 30.6667L6.70833 30.6667 6.70833 33.0625 7.66667 33.0625 7.66667 30.6667 38.3333 30.6667 38.3333 33.0625 39.2917 33.0625 39.2917 30.6667 41.6875 30.6667C43.01 30.6651 44.0817 29.5934 44.0833 28.2708L44.0833 20.125C44.0833 19.3311 43.4398 18.6875 42.6458 18.6875ZM43.125 28.2708C43.125 29.0648 42.4814 29.7083 41.6875 29.7083L4.3125 29.7083C3.51859 29.7083 2.875 29.0648 2.875 28.2708L2.875 20.125C2.875 19.8604 3.08953 19.6458 3.35417 19.6458L4.01925 19.6458C4.24469 19.6459 4.4396 19.8031 4.4874 20.0234L5.65417 25.3958 40.3458 25.3958 41.514 20.0229C41.5619 19.8033 41.756 19.6465 41.9807 19.6458L42.6458 19.6458C42.9105 19.6458 43.125 19.8604 43.125 20.125Z" stroke="#012E40" stroke-width="0.479167" fill="#012E40" transform="matrix(1.02174 0 0 1 198 265)"/><path d="M4.79167 16.2917C4.79167 15.4977 5.43524 14.8542 6.22917 14.8542L39.7708 14.8542C40.5648 14.8542 41.2083 15.4977 41.2083 16.2917L41.2083 17.7292 42.1667 17.7292 42.1667 16.2917C42.1651 14.9691 41.0934 13.8974 39.7708 13.8958L6.22917 13.8958C4.90662 13.8974 3.83492 14.9691 3.83333 16.2917L3.83333 17.7292 4.79167 17.7292Z" stroke="#012E40" stroke-width="0.479167" fill="#012E40" transform="matrix(1.02174 0 0 1 198 265)"/></g></svg>