<svg width="110" height="110" xmlns="http://www.w3.org/2000/svg" xmlns:xlink="http://www.w3.org/1999/xlink" overflow="hidden"><defs><clipPath id="clip0"><rect x="517" y="227" width="110" height="110"/></clipPath></defs><g clip-path="url(#clip0)" transform="translate(-517 -227)"><path d="M560.168 255.952C561.295 254.859 562 253.357 562 251.718 562 250.079 561.295 248.577 560.168 247.485L540.714 228.775C539.586 227.683 538.035 227 536.485 227 534.934 227 533.242 227.683 532.115 228.775L530 230.824 558.053 258.001 560.168 255.952Z" fill="#012E40" fill-rule="evenodd"/><path d="M587.594 304.616C587.043 305.167 586.217 305.442 585.528 305.442 584.839 305.442 584.013 305.167 583.462 304.616L549.301 270.634C548.75 270.083 548.474 269.258 548.474 268.57 548.474 267.882 548.75 267.057 549.301 266.506L553.571 262.379 526.159 235C524.369 236.789 522.716 238.44 521.614 239.54 518.859 242.154 517.206 245.594 517.068 249.309 516.655 255.5 518.17 261.416 520.237 267.194 522.44 272.285 525.333 277.1 528.501 281.64 539.796 298.563 553.984 313.284 570.514 324.978 573.269 327.042 576.161 328.831 579.192 330.481 586.079 333.921 593.38 336.398 601.231 336.948 606.465 337.361 611.7 335.297 615.281 331.445L619 327.73 591.727 300.351 587.594 304.616Z" fill="#012E40" fill-rule="evenodd"/><path d="M625.362 313.531 606.516 294.767C605.423 293.68 603.921 293 602.282 293 600.643 293 599.141 293.68 598.049 294.767L596 296.943 623.176 324 625.225 321.961C626.317 320.873 627 319.377 627 317.746 627 316.114 626.454 314.618 625.362 313.531Z" fill="#012E40" fill-rule="evenodd"/></g></svg>