<svg width="48" height="47" xmlns="http://www.w3.org/2000/svg" xmlns:xlink="http://www.w3.org/1999/xlink" overflow="hidden"><defs><clipPath id="clip0"><rect x="43" y="423" width="48" height="47"/></clipPath></defs><g clip-path="url(#clip0)" transform="translate(-43 -423)"><path d="M44.8948 35.6417 35.1031 19.975C34.9073 19.6813 34.6135 19.5344 34.2708 19.5344 33.9281 19.5344 33.6344 19.7302 33.4385 19.975L30.55 24.5771 36.7188 34.5646C37.2573 35.3479 37.3552 36.3271 37.0125 37.2083L43.9646 37.2083C44.3563 37.2083 44.699 37.0125 44.8948 36.6698 45.0906 36.3271 45.0906 35.9354 44.8948 35.6417L44.8948 35.6417Z" fill="#012E40" transform="matrix(1.02128 0 0 1 43 423)"/><path d="M21.101 21.101 18.6042 23.3531 16.1073 21.15 11.4073 23.9896 18.6042 12.2396 25.801 23.9896 21.101 21.101ZM35.0542 35.6417 19.4365 10.2323C19.2406 9.9875 18.9469 9.79167 18.6042 9.79167 18.2615 9.79167 17.9677 9.93854 17.7719 10.2323L2.15417 35.6417C1.90938 35.9354 1.90938 36.376 2.05625 36.7188 2.25208 37.0125 2.59479 37.2083 2.98646 37.2083L34.2219 37.2083C34.6135 37.2083 34.9563 37.0125 35.1521 36.6698 35.299 36.3271 35.299 35.9354 35.0542 35.6417Z" fill="#012E40" transform="matrix(1.02128 0 0 1 43 423)"/></g></svg>