<svg width="41" height="41" xmlns="http://www.w3.org/2000/svg" xmlns:xlink="http://www.w3.org/1999/xlink" overflow="hidden"><defs><clipPath id="clip0"><rect x="47" y="267" width="41" height="41"/></clipPath></defs><g clip-path="url(#clip0)" transform="translate(-47 -267)"><path d="M61.0938 280.154C61.0938 282.277 59.3728 283.998 57.25 283.998 55.1272 283.998 53.4062 282.277 53.4062 280.154 53.4062 278.031 55.1272 276.31 57.25 276.31 59.3728 276.31 61.0938 278.031 61.0938 280.154Z" fill="#012E40"/><path d="M81.5938 280.154C81.5938 282.277 79.8728 283.998 77.75 283.998 75.6272 283.998 73.9062 282.277 73.9062 280.154 73.9062 278.031 75.6272 276.31 77.75 276.31 79.8728 276.31 81.5938 278.031 81.5938 280.154Z" fill="#012E40"/><path d="M75.1875 298.69 75.1875 294.846C75.1875 294.248 74.9313 293.65 74.4187 293.308 73.3938 292.454 72.0271 291.856 70.6604 291.515 69.7208 291.258 68.6104 291.002 67.5 291.002 66.475 291.002 65.3646 291.173 64.3396 291.515 62.9729 291.856 61.6917 292.54 60.5812 293.308 60.0687 293.735 59.8125 294.248 59.8125 294.846L59.8125 298.69 75.1875 298.69Z" fill="#012E40"/><path d="M71.3438 286.133C71.3438 288.256 69.6228 289.977 67.5 289.977 65.3772 289.977 63.6562 288.256 63.6562 286.133 63.6562 284.01 65.3772 282.29 67.5 282.29 69.6228 282.29 71.3438 284.01 71.3438 286.133Z" fill="#012E40"/><path d="M84.6687 287.329C83.6438 286.475 82.2771 285.877 80.9104 285.535 79.9708 285.279 78.8604 285.023 77.75 285.023 76.725 285.023 75.6146 285.194 74.5896 285.535 74.0771 285.706 73.5646 285.877 73.0521 286.133L73.0521 286.219C73.0521 287.671 72.4542 289.038 71.5146 289.977 73.1375 290.49 74.4187 291.173 75.4437 291.942 75.7 292.198 75.9563 292.369 76.1271 292.71L85.4375 292.71 85.4375 288.867C85.4375 288.269 85.1813 287.671 84.6687 287.329Z" fill="#012E40"/><path d="M59.5563 291.942 59.5563 291.942C60.7521 291.087 62.1188 290.404 63.4854 289.977 62.5458 288.952 61.9479 287.671 61.9479 286.219 61.9479 286.133 61.9479 286.133 61.9479 286.048 61.4354 285.877 60.9229 285.621 60.4104 285.535 59.4708 285.279 58.3604 285.023 57.25 285.023 56.225 285.023 55.1146 285.194 54.0896 285.535 52.7229 285.962 51.4417 286.56 50.3312 287.329 49.8187 287.671 49.5625 288.269 49.5625 288.867L49.5625 292.71 58.7875 292.71C59.0438 292.369 59.2146 292.198 59.5563 291.942Z" fill="#012E40"/></g></svg>