<svg width="35" height="35" xmlns="http://www.w3.org/2000/svg" xmlns:xlink="http://www.w3.org/1999/xlink" overflow="hidden"><defs><clipPath id="clip0"><rect x="127" y="149" width="35" height="35"/></clipPath></defs><g clip-path="url(#clip0)" transform="translate(-127 -149)"><path d="M146.341 177.802 144.154 177.802C144.162 171.423 149.331 166.253 155.711 166.245L155.711 168.432C150.539 168.438 146.347 172.63 146.341 177.802Z" fill="#012E40"/><path d="M140.635 177.802 138.448 177.802C138.466 168.278 146.187 160.564 155.711 160.554L155.711 162.741C147.395 162.751 140.654 169.486 140.635 177.802Z" fill="#012E40"/><path d="M134.93 177.802 132.742 177.802C132.756 165.123 143.031 154.847 155.711 154.833L155.711 157.021C144.239 157.033 134.942 166.33 134.93 177.802Z" fill="#012E40"/><path d="M155.711 174.962C155.711 176.539 154.433 177.817 152.856 177.817 151.28 177.817 150.002 176.539 150.002 174.962 150.002 173.385 151.28 172.107 152.856 172.107 154.433 172.107 155.711 173.385 155.711 174.962Z" fill="#012E40"/></g></svg>