<svg width="361" height="281" xmlns="http://www.w3.org/2000/svg" xmlns:xlink="http://www.w3.org/1999/xlink" overflow="hidden"><defs><clipPath id="clip0"><rect x="-320" y="1048" width="361" height="281"/></clipPath></defs><g clip-path="url(#clip0)" transform="translate(320 -1048)"><path d="M28.6933 1135.81C21.7191 1135.81 16.3864 1143.42 16.3864 1153.38L16.3864 1235.33C16.3864 1209.58 1.61826 1188.5-16.4319 1188.5L-202.675 1188.5C-201.854 1184.99-201.034 1180.89-201.034 1176.79-201.034 1157.47-212.11 1141.67-225.648 1141.67L-270.773 1141.67C-284.31 1141.67-295.387 1157.47-295.387 1176.79L-295.387 1065.56C-295.387 1055.61-300.719 1048-307.693 1048-314.667 1048-320 1055.61-320 1065.56L-320 1329-295.387 1329-295.387 1270.46 16.3864 1270.46 16.3864 1329 40.9999 1329 40.9999 1153.38C40.9999 1143.42 35.6671 1135.81 28.6933 1135.81ZM-270.773 1165.08-225.648 1165.08C-221.135 1165.08-217.443 1170.35-217.443 1176.79-217.443 1183.23-221.135 1188.5-225.648 1188.5L-270.773 1188.5C-275.285 1188.5-278.977 1183.23-278.977 1176.79-278.977 1170.35-275.285 1165.08-270.773 1165.08ZM-295.387 1235.33-295.387 1211.92-16.4319 1211.92C-7.40701 1211.92-0.0227661 1222.45-0.0227661 1235.33L-295.387 1235.33Z" fill="#012E40" fill-rule="evenodd"/></g></svg>