<svg width="35" height="35" xmlns="http://www.w3.org/2000/svg" xmlns:xlink="http://www.w3.org/1999/xlink" overflow="hidden"><defs><clipPath id="clip0"><rect x="50" y="152" width="35" height="35"/></clipPath></defs><g clip-path="url(#clip0)" transform="translate(-50 -152)"><path d="M52.9167 176.062 52.9167 159.292 82.0833 159.292 82.0833 176.062 52.9167 176.062ZM70.4167 180.438 64.5833 180.438 64.5833 178.25 70.4167 178.25 70.4167 180.438ZM84.2708 178.25 84.2708 157.104 50.7292 157.104 50.7292 178.25 62.3958 178.25 62.3958 180.438 55.8333 180.438C55.4323 180.438 55.1042 180.766 55.1042 181.167L55.1042 181.896 79.8958 181.896 79.8958 181.167C79.8958 180.766 79.5677 180.438 79.1667 180.438L72.6042 180.438 72.6042 178.25 84.2708 178.25Z" fill="#012E40"/></g></svg>