<svg width="30" height="31" xmlns="http://www.w3.org/2000/svg" xmlns:xlink="http://www.w3.org/1999/xlink" overflow="hidden"><defs><clipPath id="clip0"><rect x="52" y="208" width="30" height="31"/></clipPath></defs><g clip-path="url(#clip0)" transform="translate(-52 -208)"><path d="M13.9062 11.5347C13.5097 11.553 13.1257 11.6792 12.7956 11.8997 12.6503 11.9929 12.6081 12.1862 12.7013 12.3314 12.7945 12.4767 12.9878 12.5189 13.1331 12.4258 13.1362 12.4238 13.1392 12.4218 13.1422 12.4197 13.3699 12.268 13.6333 12.1784 13.9062 12.1597 14.0788 12.1597 14.2188 12.0198 14.2188 11.8472 14.2188 11.6746 14.0788 11.5347 13.9062 11.5347Z" fill="#012E40" transform="matrix(1 0 0 1.03333 52 208)"/><path d="M17.2913 12.3328C17.3868 12.1893 17.3481 11.9954 17.2047 11.8997 16.8745 11.6792 16.4904 11.5531 16.0938 11.5347 15.9212 11.5347 15.7812 11.6746 15.7812 11.8472 15.7812 12.0198 15.9212 12.1597 16.0938 12.1597 16.3669 12.1778 16.6306 12.2675 16.8581 12.4197 17.0017 12.5152 17.1956 12.4763 17.2913 12.3328Z" fill="#012E40" transform="matrix(1 0 0 1.03333 52 208)"/><path d="M22.4084 19.565C22.4084 18.2394 21.5003 16.9616 20.0513 16.0416 20.3246 15.4077 20.4666 14.725 20.4688 14.0347 20.4382 12.8304 19.8624 11.7051 18.9034 10.9759 18.2537 7.40619 17.0287 3.96559 15.2762 0.788437 15.1919 0.635869 14.9999 0.580537 14.8473 0.664847 14.7953 0.693591 14.7525 0.736428 14.7238 0.788437 12.9713 3.96559 11.7463 7.40619 11.0966 10.9759 10.1373 11.7049 9.56137 12.8303 9.53125 14.0347 9.53347 14.725 9.67547 15.4077 9.94875 16.0416 8.49969 16.9613 7.59156 18.2394 7.59156 19.565 7.59156 20.6856 8.23906 21.7125 9.31437 22.5097L9.51156 22.6169 8.98812 23.8438C8.93697 23.9604 8.96169 24.0963 9.05062 24.1875 9.42634 24.5629 9.85203 24.8847 10.3156 25.1437L10.7812 27.4722 10.7413 27.4722C9.90041 27.4722 9.21875 28.1538 9.21875 28.9947L9.21875 29.0347C9.21875 29.2073 9.35866 29.3472 9.53125 29.3472L13.5938 29.3472C13.7663 29.3472 13.9062 29.2073 13.9062 29.0347L13.9062 28.2534C13.9062 27.6494 14.3959 27.1597 15 27.1597 15.6041 27.1597 16.0938 27.6494 16.0938 28.2534L16.0938 29.0347C16.0938 29.2073 16.2337 29.3472 16.4062 29.3472L20.4688 29.3472C20.6413 29.3472 20.7812 29.2073 20.7812 29.0347L20.7812 28.9947C20.7812 28.1538 20.0996 27.4722 19.2587 27.4722L19.2188 27.4722 19.6844 25.1434C20.1481 24.8846 20.5737 24.5629 20.9494 24.1875 21.0378 24.0961 21.0625 23.9604 21.0119 23.8438L20.49 22.625 20.7166 22.4859C21.7734 21.6925 22.4084 20.6747 22.4084 19.565ZM12.1875 11.7119C13.91 10.6423 16.09 10.6423 17.8125 11.7119L17.8125 13.4113C17.8147 13.6402 17.7143 13.858 17.5387 14.005 17.36 14.1556 17.1242 14.22 16.8938 14.1813 16.6437 14.1394 16.3706 14.11 16.0938 14.0875 16.1937 13.9329 16.2478 13.7532 16.25 13.5691 16.1572 12.8787 15.5223 12.3943 14.8319 12.4872 14.2687 12.5629 13.8257 13.0059 13.75 13.5691 13.7522 13.7532 13.8063 13.9329 13.9062 14.0875 13.6291 14.1116 13.3572 14.1409 13.1059 14.1813 12.8756 14.2201 12.6398 14.1557 12.4613 14.005 12.2856 13.8581 12.185 13.6402 12.1872 13.4113ZM15 14.6597C15.4316 14.6597 15.7812 14.8694 15.7812 15.1284 15.7812 15.3875 15.4316 15.5972 15 15.5972 14.5684 15.5972 14.2188 15.3872 14.2188 15.1284 14.2188 14.8697 14.5684 14.6597 15 14.6597ZM14.375 13.5659C14.375 13.3119 14.6613 13.0972 15 13.0972 15.3387 13.0972 15.625 13.3119 15.625 13.5659 15.625 13.82 15.3387 14.0347 15 14.0347 14.6613 14.0347 14.375 13.82 14.375 13.5659ZM12.8125 23.0328C11.91 22.8363 11.0487 22.4841 10.2672 21.9919 10.0021 21.818 9.84278 21.522 9.84375 21.205L9.84375 19.3691 10.0312 19.8856C10.112 20.1082 10.2743 20.2918 10.4853 20.3994 11.2378 20.7833 12.0153 21.1161 12.8125 21.3956ZM16.25 23.5953 13.75 23.5953 13.75 21.3784 16.25 21.3784ZM15 19.2747C14.0463 18.7794 10.7812 16.875 10.7812 14.0347 10.7868 13.5226 10.9505 13.0248 11.25 12.6094L11.25 13.4113C11.251 14.3605 12.0214 15.1292 12.9706 15.1281 12.9713 15.1281 12.9721 15.1281 12.9728 15.1281 13.069 15.1281 13.1651 15.1202 13.26 15.1044 13.3697 15.0863 13.4866 15.0731 13.6022 15.0584 13.6006 15.0819 13.5938 15.1041 13.5938 15.1284 13.5938 15.7519 14.1984 16.2222 15 16.2222 15.8016 16.2222 16.4062 15.7519 16.4062 15.1284 16.4062 15.1041 16.3994 15.0819 16.3978 15.0584 16.5134 15.0725 16.6303 15.0863 16.74 15.1044 17.6755 15.2652 18.5643 14.6372 18.7252 13.7017 18.7417 13.6058 18.75 13.5086 18.75 13.4113L18.75 12.6094C19.0495 13.0248 19.2132 13.5226 19.2188 14.0347 19.2188 16.8659 15.9509 18.7781 15 19.2747ZM20.1625 21.2234C20.1597 21.5351 20.0022 21.825 19.7422 21.9969 18.96 22.4949 18.0947 22.8482 17.1875 23.04L17.1875 21.3959C17.9877 21.1156 18.7682 20.7815 19.5234 20.3959 19.7287 20.2911 19.8881 20.1143 19.9713 19.8994L20.1844 19.3478Z" fill="#012E40" transform="matrix(1 0 0 1.03333 52 208)"/></g></svg>