<svg width="268" height="192" xmlns="http://www.w3.org/2000/svg" xmlns:xlink="http://www.w3.org/1999/xlink" overflow="hidden"><defs><clipPath id="clip0"><rect x="581" y="1502" width="268" height="192"/></clipPath></defs><g clip-path="url(#clip0)" transform="translate(-581 -1502)"><path d="M584 1505 584 1691 846 1691 846 1505ZM722.315 1623.71C718.268 1627.73 711.732 1627.73 707.685 1623.71L595.828 1511.95C595.815 1511.93 595.815 1511.91 595.828 1511.9 595.835 1511.89 595.843 1511.89 595.852 1511.89L834.148 1511.89C834.167 1511.89 834.182 1511.9 834.182 1511.92 834.182 1511.93 834.178 1511.94 834.172 1511.95ZM672.205 1598 590.953 1679.18C590.94 1679.2 590.918 1679.2 590.905 1679.18 590.898 1679.18 590.895 1679.17 590.895 1679.16L590.895 1516.84C590.895 1516.82 590.911 1516.81 590.93 1516.81 590.939 1516.81 590.947 1516.81 590.953 1516.82ZM677.079 1602.87 702.81 1628.58C709.541 1635.31 720.454 1635.31 727.187 1628.58 727.188 1628.58 727.189 1628.58 727.19 1628.58L752.921 1602.87 834.172 1684.05C834.186 1684.07 834.185 1684.09 834.172 1684.1 834.165 1684.11 834.157 1684.11 834.148 1684.11L595.852 1684.11C595.833 1684.11 595.818 1684.1 595.818 1684.08 595.818 1684.07 595.822 1684.06 595.828 1684.05ZM757.796 1598 839.047 1516.82C839.06 1516.8 839.082 1516.8 839.095 1516.82 839.102 1516.82 839.105 1516.83 839.105 1516.84L839.105 1679.16C839.105 1679.18 839.089 1679.19 839.071 1679.19 839.061 1679.19 839.053 1679.19 839.047 1679.18Z" stroke="#012E40" stroke-width="5.72917" stroke-miterlimit="8" fill="#012E40" fill-rule="evenodd"/></g></svg>