<svg width="40" height="40" xmlns="http://www.w3.org/2000/svg" xmlns:xlink="http://www.w3.org/1999/xlink" overflow="hidden"><defs><clipPath id="clip0"><rect x="47" y="367" width="40" height="40"/></clipPath></defs><g clip-path="url(#clip0)" transform="translate(-47 -367)"><path d="M80.5417 385.958C80.5417 388.029 78.8627 389.708 76.7917 389.708 74.7206 389.708 73.0417 388.029 73.0417 385.958 73.0417 383.887 74.7206 382.208 76.7917 382.208 78.8627 382.208 80.5417 383.887 80.5417 385.958Z" fill="#012E40"/><path d="M58.6667 392.625 58.6667 392.625C59.2083 392.583 59.75 392.458 60.2917 392.25 61.125 391.917 61.9583 391.75 62.8333 391.708 63.7083 391.75 64.5833 391.917 65.375 392.25 65.875 392.458 66.4167 392.583 67 392.625 67.5417 392.583 68.0833 392.458 68.625 392.25 69.4583 391.917 70.2917 391.75 71.1667 391.708 72.0417 391.75 72.9167 391.917 73.7083 392.25L74 392.333C74 392.125 73.9167 391.958 73.8333 391.792L73 390.25 73 390.208 68.7917 382.125 75.8333 380.292C76.9583 380 77.625 378.875 77.3333 377.75 77.0417 376.625 75.9167 375.958 74.7917 376.25L65.2083 378.75C64.5833 378.917 64.0833 379.333 63.8333 379.917 63.5833 380.5 63.5833 381.167 63.875 381.708L66.4167 386.625 57.125 392.125C57.0833 392.167 57.0417 392.208 56.9583 392.25L57.0417 392.292C57.5833 392.458 58.125 392.583 58.6667 392.625Z" fill="#012E40"/><path d="M82 394.958C81.2083 394.625 80.375 394.458 79.5 394.417L79.5 394.417C78.625 394.458 77.7917 394.625 77 394.958 76.4583 395.167 75.9167 395.292 75.3333 395.333L75.3333 395.333C74.75 395.292 74.2083 395.167 73.6667 394.958 72.875 394.625 72.0417 394.458 71.1667 394.417L71.1667 394.417C70.2917 394.458 69.4583 394.625 68.6667 394.958 68.125 395.167 67.5833 395.292 67 395.333 66.4167 395.292 65.875 395.167 65.3333 394.958 64.5417 394.625 63.7083 394.458 62.8333 394.417L62.8333 394.417C61.9583 394.458 61.125 394.625 60.3333 394.958 59.7917 395.167 59.25 395.292 58.6667 395.333 58.0833 395.292 57.5417 395.167 57 394.958 56.2083 394.625 55.375 394.458 54.5 394.417L54.5 394.417C53.625 394.458 52.7917 394.625 52 394.958 51.4583 395.167 50.9167 395.292 50.3333 395.333L50.3333 397.833C51.2083 397.792 52.0417 397.625 52.8333 397.292 53.375 397.083 53.9167 396.917 54.5 396.917 55.0833 396.958 55.625 397.083 56.1667 397.292 56.9583 397.625 57.7917 397.792 58.6667 397.833L58.6667 397.833C59.5417 397.792 60.375 397.625 61.1667 397.292 61.7083 397.083 62.25 396.917 62.8333 396.917 63.4167 396.958 63.9583 397.083 64.5 397.292 65.2917 397.625 66.125 397.792 67 397.833 67.875 397.792 68.7083 397.625 69.5 397.292 70.0417 397.083 70.5833 396.917 71.1667 396.917 71.75 396.958 72.2917 397.083 72.8333 397.292 73.625 397.625 74.4583 397.792 75.3333 397.833L75.3333 397.833C76.2083 397.792 77.0417 397.625 77.8333 397.292 78.375 397.083 78.9167 396.917 79.5 396.917 80.0833 396.958 80.625 397.083 81.1667 397.292 81.9583 397.625 82.7917 397.792 83.6667 397.833L83.6667 395.333C83.0833 395.292 82.5417 395.167 82 394.958Z" fill="#012E40"/></g></svg>