<svg width="79" height="65" xmlns="http://www.w3.org/2000/svg" xmlns:xlink="http://www.w3.org/1999/xlink" overflow="hidden"><defs><clipPath id="clip0"><rect x="183" y="66" width="79" height="65"/></clipPath></defs><g clip-path="url(#clip0)" transform="translate(-183 -66)"><path d="M222.5 123.121C212.625 123.121 204.725 115.243 204.725 105.394 204.725 95.5454 212.625 87.6665 222.5 87.6665 232.375 87.6665 240.275 95.5454 240.275 105.394 240.275 115.243 232.375 123.121 222.5 123.121ZM202.75 91.6062 190.9 91.6062 190.9 83.7273 202.75 83.7273 202.75 91.6062ZM258.05 75.8484 238.3 75.8484 232.375 66 212.625 66 206.7 75.8484 186.95 75.8484C184.777 75.8484 183 77.6213 183 79.788L183 127.061C183 129.227 184.777 131 186.95 131L258.05 131C260.223 131 262 129.227 262 127.061L262 79.788C262 77.6213 260.223 75.8484 258.05 75.8484Z" fill="#FCFFFF" fill-rule="evenodd"/><path d="M222.5 95C217.1 95 212.857 99.3999 212.857 105 212.857 110.6 217.1 115 222.5 115 227.9 115 232.143 110.6 232.143 105 232.143 99.3999 227.9 95 222.5 95ZM222.5 119C214.979 119 209 112.8 209 105 209 97.2 214.979 91.0001 222.5 91.0001 230.022 91.0001 236 97.2 236 105 236 112.8 230.022 119 222.5 119Z" fill="#FCFFFF" fill-rule="evenodd"/></g></svg>