<svg width="81" height="62" xmlns="http://www.w3.org/2000/svg" xmlns:xlink="http://www.w3.org/1999/xlink" overflow="hidden"><defs><clipPath id="clip0"><rect x="653" y="73" width="81" height="62"/></clipPath></defs><g clip-path="url(#clip0)" transform="translate(-653 -73)"><path d="M726.853 90.3571 726.853 97.5 717.323 97.5 717.323 90.3571 726.853 90.3571ZM660.147 122.5 669.677 122.5 669.677 129.643 660.147 129.643 660.147 122.5ZM683.971 90.3571 683.971 97.5 674.441 97.5 674.441 90.3571 683.971 90.3571ZM698.265 90.3571 698.265 97.5 688.735 97.5 688.735 90.3571 698.265 90.3571ZM712.559 108.214 703.029 108.214 703.029 101.071 712.559 101.071 712.559 108.214ZM717.323 108.214 717.323 101.071 726.853 101.071 726.853 108.214 717.323 108.214ZM717.323 118.929 717.323 111.786 726.853 111.786 726.853 118.929 717.323 118.929ZM688.735 122.5 698.265 122.5 698.265 129.643 688.735 129.643 688.735 122.5ZM683.971 122.5 683.971 129.643 674.441 129.643 674.441 122.5 683.971 122.5ZM674.441 111.786 683.971 111.786 683.971 118.929 674.441 118.929 674.441 111.786ZM669.677 111.786 669.677 118.929 660.147 118.929 660.147 111.786 669.677 111.786ZM669.677 101.071 669.677 108.214 660.147 108.214 660.147 101.071 669.677 101.071ZM683.971 108.214 674.441 108.214 674.441 101.071 683.971 101.071 683.971 108.214ZM688.735 108.214 688.735 101.071 698.265 101.071 698.265 108.214 688.735 108.214ZM698.265 118.929 688.735 118.929 688.735 111.786 698.265 111.786 698.265 118.929ZM703.029 118.929 703.029 111.786 712.559 111.786 712.559 118.929 703.029 118.929ZM712.559 90.3571 712.559 97.5 703.029 97.5 703.029 90.3571 712.559 90.3571ZM653 84.9999 653 135 734 135 734 84.9999 653 84.9999Z" fill="#FCFFFF" fill-rule="evenodd"/><path d="M653 72.9999 734 72.9999 734 80.0001 653 80.0001Z" fill="#FCFFFF" fill-rule="evenodd"/></g></svg>