<svg width="13632" height="8938" xmlns="http://www.w3.org/2000/svg" xmlns:xlink="http://www.w3.org/1999/xlink" overflow="hidden"><defs><clipPath id="clip0"><rect x="-17800" y="814" width="13632" height="8938"/></clipPath></defs><g clip-path="url(#clip0)" transform="translate(17800 -814)"><path d="M-10087 4081.5C-10945 4081.5-11640.5 3385.97-11640.5 2528-11640.5 1670.03-10945 974.5-10087 974.5-9252.75 974.5-8567.45 1633.41-8534.7 2467.01" stroke="#012E40" stroke-width="320.833" stroke-miterlimit="8" fill="none" fill-rule="evenodd"/><path d="M-10729.5 4942.5C-11760.6 4942.5-12596.5 4106.62-12596.5 3075.5-12596.5 2044.38-11760.6 1208.5-10729.5 1208.5-9726.9 1208.5-8903.3 2000.38-8863.94 3002.2" stroke="#D65B10" stroke-width="320.833" stroke-miterlimit="8" fill="none" fill-rule="evenodd"/><path d="M-16957.5 3496.5-16957.5 8438.55" stroke="#D65B10" stroke-width="320.833" stroke-miterlimit="8" fill="none" fill-rule="evenodd"/><path d="M-17118.5 3496.5-14363.8 3496.5" stroke="#D65B10" stroke-width="320.833" stroke-miterlimit="8" fill="none" fill-rule="evenodd"/><path d="M-17639.5 4224.5-17639.5 8148.04" stroke="#012E40" stroke-width="320.833" stroke-miterlimit="8" fill="none" fill-rule="evenodd"/><path d="M-17777.5 4349.5-15590.5 4349.5" stroke="#012E40" stroke-width="320.833" stroke-miterlimit="8" fill="none" fill-rule="evenodd"/><text font-family="Grotesque,Grotesque_MSFontService,sans-serif" font-weight="400" font-size="1893" transform="matrix(1 0 0 1 -16242.2 8135)">UENTEOBA<tspan font-size="1893" x="6382.08" y="-3124">AS</tspan>A</text></g></svg>